<svg width="32" height="32" viewBox="0 0 32 32" fill="none" xmlns="http://www.w3.org/2000/svg">
<rect x="0.5" y="0.5" width="31" height="31" rx="7.5" fill="#FAFAFA"/>
<rect x="0.5" y="0.5" width="31" height="31" rx="7.5" stroke="#9F9FA9"/>
<path d="M15.9998 8.5V18.5M19.3332 15.1667L15.9998 18.5L12.6665 15.1667M12.6665 10.1667H9.33317C8.89114 10.1667 8.46722 10.3423 8.15466 10.6548C7.8421 10.9674 7.6665 11.3913 7.6665 11.8333V20.1667C7.6665 20.6087 7.8421 21.0326 8.15466 21.3452C8.46722 21.6577 8.89114 21.8333 9.33317 21.8333H22.6665C23.1085 21.8333 23.5325 21.6577 23.845 21.3452C24.1576 21.0326 24.3332 20.6087 24.3332 20.1667V11.8333C24.3332 11.3913 24.1576 10.9674 23.845 10.6548C23.5325 10.3423 23.1085 10.1667 22.6665 10.1667H19.3332" stroke="#587A11" stroke-width="1.66667" stroke-linecap="round" stroke-linejoin="round"/>
</svg>
