<svg width="28" height="28" viewBox="0 0 28 28" fill="none" xmlns="http://www.w3.org/2000/svg">
<path d="M6 0.5H22C25.0376 0.5 27.5 2.96243 27.5 6V22C27.5 25.0376 25.0376 27.5 22 27.5H6C2.96243 27.5 0.5 25.0376 0.5 22V6C0.5 2.96243 2.96243 0.5 6 0.5Z" fill="#F5F5F4"/>
<path d="M6 0.5H22C25.0376 0.5 27.5 2.96243 27.5 6V22C27.5 25.0376 25.0376 27.5 22 27.5H6C2.96243 27.5 0.5 25.0376 0.5 22V6C0.5 2.96243 2.96243 0.5 6 0.5Z" stroke="#E2E8F0"/>
<path d="M14.0002 8V16M16.6668 13.3333L14.0002 16L11.3335 13.3333M11.3335 9.33333H8.66683C8.31321 9.33333 7.97407 9.47381 7.72402 9.72386C7.47397 9.97391 7.3335 10.313 7.3335 10.6667V17.3333C7.3335 17.687 7.47397 18.0261 7.72402 18.2761C7.97407 18.5262 8.31321 18.6667 8.66683 18.6667H19.3335C19.6871 18.6667 20.0263 18.5262 20.2763 18.2761C20.5264 18.0261 20.6668 17.687 20.6668 17.3333V10.6667C20.6668 10.313 20.5264 9.97391 20.2763 9.72386C20.0263 9.47381 19.6871 9.33333 19.3335 9.33333H16.6668" stroke="#1E2D06" stroke-width="1.33333" stroke-linecap="round" stroke-linejoin="round"/>
</svg>
